<svg width="17" height="16" viewBox="0 0 17 16" fill="none" xmlns="http://www.w3.org/2000/svg">
<path d="M3.54163 12V14.5107L4.61475 13.9047L7.98783 12H11.3333C12.1146 12 12.75 11.402 12.75 10.6667V5.33333C12.75 4.598 12.1146 4 11.3333 4H2.83329C2.052 4 1.41663 4.598 1.41663 5.33333V10.6667C1.41663 11.402 2.052 12 2.83329 12H3.54163ZM2.83329 5.33333H11.3333V10.6667H7.59542L4.95829 12.156V10.6667H2.83329V5.33333Z" fill="#8C8C8C"/>
<path d="M14.1667 1.33325H5.66667C4.88538 1.33325 4.25 1.93125 4.25 2.66659H12.75C13.5313 2.66659 14.1667 3.26459 14.1667 3.99992V9.33325C14.948 9.33325 15.5833 8.73525 15.5833 7.99992V2.66659C15.5833 1.93125 14.948 1.33325 14.1667 1.33325Z" fill="#8C8C8C"/>
</svg>
