<svg width="24" height="24" viewBox="0 0 24 24" fill="none" xmlns="http://www.w3.org/2000/svg">
<path d="M2.41137 5.60018C2.30536 5.59868 2.20011 5.61826 2.10174 5.65779C2.00336 5.69733 1.91382 5.75601 1.83833 5.83045C1.76283 5.90489 1.70288 5.99358 1.66197 6.09139C1.62105 6.18919 1.59998 6.29416 1.59998 6.40018C1.59998 6.5062 1.62105 6.61116 1.66197 6.70897C1.70288 6.80677 1.76283 6.89547 1.83833 6.96991C1.91382 7.04434 2.00336 7.10303 2.10174 7.14256C2.20011 7.18209 2.30536 7.20168 2.41137 7.20018H21.6114C21.7174 7.20168 21.8226 7.18209 21.921 7.14256C22.0194 7.10303 22.1089 7.04434 22.1844 6.96991C22.2599 6.89547 22.3199 6.80677 22.3608 6.70897C22.4017 6.61116 22.4228 6.5062 22.4228 6.40018C22.4228 6.29416 22.4017 6.18919 22.3608 6.09139C22.3199 5.99358 22.2599 5.90489 22.1844 5.83045C22.1089 5.75601 22.0194 5.69733 21.921 5.65779C21.8226 5.61826 21.7174 5.59868 21.6114 5.60018H2.41137ZM2.41137 11.2002C2.30536 11.1987 2.20011 11.2183 2.10174 11.2578C2.00336 11.2973 1.91382 11.356 1.83833 11.4304C1.76283 11.5049 1.70288 11.5936 1.66197 11.6914C1.62105 11.7892 1.59998 11.8942 1.59998 12.0002C1.59998 12.1062 1.62105 12.2112 1.66197 12.309C1.70288 12.4068 1.76283 12.4955 1.83833 12.5699C1.91382 12.6443 2.00336 12.703 2.10174 12.7426C2.20011 12.7821 2.30536 12.8017 2.41137 12.8002H21.6114C21.7174 12.8017 21.8226 12.7821 21.921 12.7426C22.0194 12.703 22.1089 12.6443 22.1844 12.5699C22.2599 12.4955 22.3199 12.4068 22.3608 12.309C22.4017 12.2112 22.4228 12.1062 22.4228 12.0002C22.4228 11.8942 22.4017 11.7892 22.3608 11.6914C22.3199 11.5936 22.2599 11.5049 22.1844 11.4304C22.1089 11.356 22.0194 11.2973 21.921 11.2578C21.8226 11.2183 21.7174 11.1987 21.6114 11.2002H2.41137ZM2.41137 16.8002C2.30536 16.7987 2.20011 16.8183 2.10174 16.8578C2.00336 16.8973 1.91382 16.956 1.83833 17.0304C1.76283 17.1049 1.70288 17.1936 1.66197 17.2914C1.62105 17.3892 1.59998 17.4942 1.59998 17.6002C1.59998 17.7062 1.62105 17.8112 1.66197 17.909C1.70288 18.0068 1.76283 18.0955 1.83833 18.1699C1.91382 18.2443 2.00336 18.303 2.10174 18.3426C2.20011 18.3821 2.30536 18.4017 2.41137 18.4002H21.6114C21.7174 18.4017 21.8226 18.3821 21.921 18.3426C22.0194 18.303 22.1089 18.2443 22.1844 18.1699C22.2599 18.0955 22.3199 18.0068 22.3608 17.909C22.4017 17.8112 22.4228 17.7062 22.4228 17.6002C22.4228 17.4942 22.4017 17.3892 22.3608 17.2914C22.3199 17.1936 22.2599 17.1049 22.1844 17.0304C22.1089 16.956 22.0194 16.8973 21.921 16.8578C21.8226 16.8183 21.7174 16.7987 21.6114 16.8002H2.41137Z" fill="black"/>
</svg>
